<?xml version="1.0" encoding="UTF-8" standalone="no"?>
<!-- Created with Inkscape (http://www.inkscape.org/) -->

<svg
   xmlns:dc="http://purl.org/dc/elements/1.1/"
   xmlns:cc="http://creativecommons.org/ns#"
   xmlns:rdf="http://www.w3.org/1999/02/22-rdf-syntax-ns#"
   xmlns:svg="http://www.w3.org/2000/svg"
   xmlns="http://www.w3.org/2000/svg"
   xmlns:sodipodi="http://sodipodi.sourceforge.net/DTD/sodipodi-0.dtd"
   xmlns:inkscape="http://www.inkscape.org/namespaces/inkscape"
   id="svg2"
   version="1.1"
   inkscape:version="0.91 r13725"
   xml:space="preserve"
   width="1180.2936"
   height="135.68912"
   viewBox="0 0 1180.2936 135.68911"
   sodipodi:docname="logo-watersense-white.svg"><metadata
     id="metadata8"><rdf:RDF><cc:Work
         rdf:about=""><dc:format>image/svg+xml</dc:format><dc:type
           rdf:resource="http://purl.org/dc/dcmitype/StillImage" /><dc:title></dc:title></cc:Work></rdf:RDF></metadata><defs
     id="defs6"><clipPath
       clipPathUnits="userSpaceOnUse"
       id="clipPath16"><path
         d="m 0,595.28 595.28,0 L 595.28,0 0,0 0,595.28 Z"
         id="path18"
         inkscape:connector-curvature="0" /></clipPath></defs><sodipodi:namedview
     pagecolor="#ffffff"
     bordercolor="#666666"
     borderopacity="1"
     objecttolerance="10"
     gridtolerance="10"
     guidetolerance="10"
     inkscape:pageopacity="0"
     inkscape:pageshadow="2"
     inkscape:window-width="1867"
     inkscape:window-height="1056"
     id="namedview4"
     showgrid="false"
     inkscape:zoom="0.8970687"
     inkscape:cx="586.53733"
     inkscape:cy="-71.353661"
     inkscape:window-x="53"
     inkscape:window-y="24"
     inkscape:window-maximized="1"
     inkscape:current-layer="g10"
     units="px"
     fit-margin-top="0"
     fit-margin-left="0"
     fit-margin-right="0"
     fit-margin-bottom="0"
     inkscape:snap-text-baseline="true" /><g
     id="g10"
     inkscape:groupmode="layer"
     inkscape:label="Logo-Waziup-V4 (1)"
     transform="matrix(1.25,0,0,-1.25,-152.13856,792.61769)"><g
       id="g24"
       transform="matrix(1.4728866,0,0,1.6621193,624.02779,527.83775)"
       style="fill:#0059ef;fill-opacity:1"><path
         d="m 0,0 c 6.266,8.055 10.053,18.178 10.053,29.125 0,11.431 -4.063,21.896 -10.81,30.158 -1.309,1.584 -3.72,1.791 -5.233,0.346 L -6.817,58.871 C -8.194,57.563 -8.331,55.359 -7.161,53.914 -1.653,47.166 1.652,38.559 1.652,29.195 1.652,20.174 -1.446,11.842 -6.541,5.232 -7.712,3.717 -7.505,1.584 -6.06,0.344 l 0.827,-0.758 C -3.718,-1.859 -1.309,-1.654 0,0"
         style="fill:#0059ef;fill-opacity:1;fill-rule:nonzero;stroke:none"
         id="path26"
         inkscape:connector-curvature="0" /></g><g
       id="g28"
       transform="matrix(1.4728866,0,0,1.6621193,610.64087,542.71555)"
       style="fill:#0059ef;fill-opacity:1"><path
         d="m 0,0 c 4.062,5.715 6.472,12.668 6.472,20.174 0,7.849 -2.618,15.148 -7.023,21.002 -1.308,1.72 -3.787,1.996 -5.371,0.482 l -0.826,-0.759 c -1.377,-1.307 -1.516,-3.374 -0.413,-4.888 3.305,-4.407 5.302,-9.915 5.302,-15.837 0,-5.715 -1.79,-11.016 -4.889,-15.285 -1.033,-1.516 -0.757,-3.58 0.62,-4.752 l 0.826,-0.688 C -3.787,-2.066 -1.309,-1.721 0,0"
         style="fill:#0059ef;fill-opacity:1;fill-rule:nonzero;stroke:none"
         id="path30"
         inkscape:connector-curvature="0" /></g><g
       id="g32"
       transform="matrix(1.4728866,0,0,1.6621193,595.83439,558.16478)"
       style="fill:#0059ef;fill-opacity:1"><path
         d="m 0,0 c 1.928,3.168 3.029,6.887 3.029,10.879 0,4.201 -1.239,8.195 -3.374,11.5 -1.239,1.928 -3.855,2.271 -5.509,0.756 L -6.68,22.379 c -1.238,-1.172 -1.584,-3.098 -0.62,-4.545 1.24,-1.996 1.997,-4.406 1.997,-6.955 0,-2.34 -0.62,-4.543 -1.72,-6.473 -0.895,-1.513 -0.621,-3.373 0.688,-4.545 l 0.826,-0.756 C -3.856,-2.34 -1.171,-1.928 0,0"
         style="fill:#0059ef;fill-opacity:1;fill-rule:nonzero;stroke:none"
         id="path34"
         inkscape:connector-curvature="0" /></g><text
       transform="scale(1,-1)"
       sodipodi:linespacing="125%"
       id="text3371"
       y="-472.29831"
       x="244.23424"
       style="font-style:normal;font-weight:normal;font-size:32px;line-height:125%;font-family:sans-serif;letter-spacing:0px;word-spacing:0px;fill:#000000;fill-opacity:1;stroke:none;stroke-width:1px;stroke-linecap:butt;stroke-linejoin:miter;stroke-opacity:1"
       xml:space="preserve"><tspan
         y="-472.29831"
         x="244.23424"
         id="tspan3373"
         sodipodi:role="line" /></text>
<text
       transform="scale(1,-1)"
       sodipodi:linespacing="125%"
       id="text3375"
       y="-530.31293"
       x="113.07085"
       style="font-style:normal;font-weight:normal;font-size:32px;line-height:125%;font-family:sans-serif;letter-spacing:0px;word-spacing:0px;fill:#0059ef;fill-opacity:1;stroke:none;stroke-width:1px;stroke-linecap:butt;stroke-linejoin:miter;stroke-opacity:1"
       xml:space="preserve"><tspan
         style="font-style:normal;font-variant:normal;font-weight:normal;font-stretch:normal;font-size:144px;line-height:125%;font-family:'Organo (colored version at: logomagazin.com/organo-font)';-inkscape-font-specification:'Organo (colored version at: logomagazin.com/organo-font), Normal';text-align:start;writing-mode:lr-tb;text-anchor:start;fill:#0059ef;fill-opacity:1;stroke:none;stroke-opacity:1"
         y="-530.31293"
         x="113.07085"
         id="tspan3377"
         sodipodi:role="line">Water <tspan
   style="font-style:normal;font-variant:normal;font-weight:bold;font-stretch:normal;font-size:144px;line-height:125%;font-family:'Roboto Slab';-inkscape-font-specification:'Roboto Slab, Bold';text-align:start;writing-mode:lr-tb;text-anchor:start;fill:#8c939b;fill-opacity:1"
   id="tspan4416">Sense</tspan></tspan></text>
</g></svg>