<?xml version="1.0" encoding="UTF-8" standalone="no"?>
<!-- Created with Inkscape (http://www.inkscape.org/) -->

<svg
   xmlns:dc="http://purl.org/dc/elements/1.1/"
   xmlns:cc="http://creativecommons.org/ns#"
   xmlns:rdf="http://www.w3.org/1999/02/22-rdf-syntax-ns#"
   xmlns:svg="http://www.w3.org/2000/svg"
   xmlns="http://www.w3.org/2000/svg"
   xmlns:sodipodi="http://sodipodi.sourceforge.net/DTD/sodipodi-0.dtd"
   xmlns:inkscape="http://www.inkscape.org/namespaces/inkscape"
   id="svg2"
   version="1.1"
   inkscape:version="0.92.3 (2405546, 2018-03-11)"
   xml:space="preserve"
   width="801.9436"
   height="201.8299"
   viewBox="0 0 801.94362 201.82989"
   sodipodi:docname="logo-waziup-squared.svg"><metadata
     id="metadata8"><rdf:RDF><cc:Work
         rdf:about=""><dc:format>image/svg+xml</dc:format><dc:type
           rdf:resource="http://purl.org/dc/dcmitype/StillImage" /><dc:title></dc:title></cc:Work></rdf:RDF></metadata><defs
     id="defs6"><clipPath
       clipPathUnits="userSpaceOnUse"
       id="clipPath16"><path
         d="m 0,595.28 595.28,0 L 595.28,0 0,0 0,595.28 Z"
         id="path18"
         inkscape:connector-curvature="0" /></clipPath></defs><sodipodi:namedview
     pagecolor="#ffffff"
     bordercolor="#666666"
     borderopacity="1"
     objecttolerance="10"
     gridtolerance="10"
     guidetolerance="10"
     inkscape:pageopacity="0"
     inkscape:pageshadow="2"
     inkscape:window-width="1853"
     inkscape:window-height="1053"
     id="namedview4"
     showgrid="false"
     inkscape:zoom="0.8970687"
     inkscape:cx="426.89035"
     inkscape:cy="245.70699"
     inkscape:window-x="67"
     inkscape:window-y="27"
     inkscape:window-maximized="1"
     inkscape:current-layer="g14"
     units="px"
     fit-margin-top="0"
     fit-margin-left="0"
     fit-margin-right="0"
     fit-margin-bottom="0" /><g
     id="g10"
     inkscape:groupmode="layer"
     inkscape:label="Logo-Waziup-V4 (1)"
     transform="matrix(1.25,0,0,-1.25,-94.044067,459.56488)"><g
       id="g12"
       transform="translate(-5.0447456,25.223728)"><g
         id="g14"
         clip-path="url(#clipPath16)"
         transform="matrix(1.4757877,0,0,1.6621193,-38.196237,-233.01697)"><g
           id="g24"
           transform="translate(504.9473,266.0645)"><path
             d="m 0,0 c 6.266,8.055 10.053,18.178 10.053,29.125 0,11.431 -4.063,21.896 -10.81,30.158 -1.309,1.584 -3.72,1.791 -5.233,0.346 L -6.817,58.871 C -8.194,57.563 -8.331,55.359 -7.161,53.914 -1.653,47.166 1.652,38.559 1.652,29.195 1.652,20.174 -1.446,11.842 -6.541,5.232 -7.712,3.717 -7.505,1.584 -6.06,0.344 l 0.827,-0.758 C -3.718,-1.859 -1.309,-1.654 0,0"
             style="fill:#f35e19;fill-opacity:1;fill-rule:nonzero;stroke:none"
             id="path26"
             inkscape:connector-curvature="0" /></g><g
           id="g28"
           transform="translate(495.8584,275.0156)"><path
             d="m 0,0 c 4.062,5.715 6.472,12.668 6.472,20.174 0,7.849 -2.618,15.148 -7.023,21.002 -1.308,1.72 -3.787,1.996 -5.371,0.482 l -0.826,-0.759 c -1.377,-1.307 -1.516,-3.374 -0.413,-4.888 3.305,-4.407 5.302,-9.915 5.302,-15.837 0,-5.715 -1.79,-11.016 -4.889,-15.285 -1.033,-1.516 -0.757,-3.58 0.62,-4.752 l 0.826,-0.688 C -3.787,-2.066 -1.309,-1.721 0,0"
             style="fill:#f35e19;fill-opacity:1;fill-rule:nonzero;stroke:none"
             id="path30"
             inkscape:connector-curvature="0" /></g><g
           id="g32"
           transform="translate(485.8057,284.3105)"><path
             d="m 0,0 c 1.928,3.168 3.029,6.887 3.029,10.879 0,4.201 -1.239,8.195 -3.374,11.5 -1.239,1.928 -3.855,2.271 -5.509,0.756 L -6.68,22.379 c -1.238,-1.172 -1.584,-3.098 -0.62,-4.545 1.24,-1.996 1.997,-4.406 1.997,-6.955 0,-2.34 -0.62,-4.543 -1.72,-6.473 -0.895,-1.513 -0.621,-3.373 0.688,-4.545 l 0.826,-0.756 C -3.856,-2.34 -1.171,-1.928 0,0"
             style="fill:#f35e19;fill-opacity:1;fill-rule:nonzero;stroke:none"
             id="path34"
             inkscape:connector-curvature="0" /></g><g
           id="g60"
           transform="translate(469.68688,326.04968)"><path
             d="M 0,0 C -1.16,1.159 -2.577,1.738 -4.25,1.738 -5.926,1.738 -7.326,1.159 -8.452,0 -9.58,-1.159 -10.143,-2.577 -10.143,-4.25 v -35.836 l -7.803,7.822 c -3.149,3.157 -6.969,4.735 -11.466,4.735 -2.185,0 -4.272,-0.403 -6.264,-1.207 -1.992,-0.807 -3.725,-1.981 -5.202,-3.528 l -7.708,-7.726 v 35.74 c 0,1.674 -0.586,3.091 -1.754,4.25 -1.168,1.158 -2.595,1.738 -4.283,1.738 -1.687,0 -3.117,-0.58 -4.285,-1.738 -1.169,-1.159 -1.752,-2.576 -1.752,-4.25 v -50.133 c 0,-1.676 0.58,-3.09 1.739,-4.25 1.158,-1.16 2.574,-1.738 4.25,-1.738 1.223,0 2.382,0.351 3.478,1.062 v -0.095 l 17.772,17.869 c 1.094,1.094 2.415,1.64 3.961,1.64 1.415,0 2.704,-0.515 3.862,-1.543 l 17.196,-17.291 0.771,-0.675 0.097,0.095 c 1.029,-0.711 2.125,-1.062 3.284,-1.062 1.673,0 3.09,0.578 4.25,1.738 1.159,1.16 1.738,2.574 1.738,4.25 V -4.25 C 1.738,-2.577 1.159,-1.159 0,0"
             style="fill:#186dbf;fill-opacity:1;fill-rule:nonzero;stroke:none"
             id="path62"
             inkscape:connector-curvature="0" /></g></g></g></g></svg>